<!DOCTYPE svg PUBLIC "-//W3C//DTD SVG 1.1//EN" "http://www.w3.org/Graphics/SVG/1.1/DTD/svg11.dtd">
<!-- Uploaded to: SVG Repo, www.svgrepo.com, Transformed by: SVG Repo Mixer Tools -->
<svg width="64px" height="64px" viewBox="0 0 24 24" version="1.1" xml:space="preserve" xmlns="http://www.w3.org/2000/svg" xmlns:xlink="http://www.w3.org/1999/xlink" fill="#D05663">
<g id="SVGRepo_bgCarrier" stroke-width="0"/>
<g id="SVGRepo_tracerCarrier" stroke-linecap="round" stroke-linejoin="round"/>
<g id="SVGRepo_iconCarrier"> <style type="text/css"> .st0{opacity:0.2;fill:none;stroke:#D05663;stroke-width:5.000000e-02;stroke-miterlimit:10;} </style> <g id="grid_system"/> <g id="_icons"> <path d="M14.3,4.5c-0.9,0.4-1.7,1.1-2.3,1.9c-0.6-0.8-1.4-1.4-2.3-1.9C7.9,3.6,5.8,3.9,4.4,5.3c-1,1-1.5,2.3-1.3,3.6 c-0.1,4.8,2.7,9.3,7.1,11.4l0.8,0.4c0.4,0.2,0.8,0.3,1.2,0.3s0.8-0.1,1.2-0.3l0.8-0.4c4.4-2.1,7.2-6.6,7.1-11.4 c0.1-1.4-0.4-2.7-1.3-3.6C18.2,3.9,16.1,3.6,14.3,4.5z M19,8.9c0.1,4-2.2,7.8-5.9,9.6l-0.8,0.4c-0.2,0.1-0.4,0.1-0.6,0L11,18.6 C7.2,16.8,4.9,13,5,8.9c0,0,0-0.1,0-0.1C4.9,8,5.2,7.3,5.8,6.7C6.3,6.3,6.9,6,7.6,6C8,6,8.4,6.1,8.8,6.3c0.9,0.5,1.7,1.2,2.2,2.1 l0.1,0.3c0.3,0.7,1.4,0.7,1.8,0L13,8.4c0.5-0.9,1.2-1.7,2.2-2.1c1-0.5,2.2-0.3,3,0.5c0.6,0.5,0.8,1.3,0.7,2C19,8.8,19,8.9,19,8.9z"/> </g> </g>
</svg>